<?xml version="1.0" encoding="UTF-8" standalone="no"?>
<!-- Created with Inkscape (http://www.inkscape.org/) -->

<svg
   xmlns:dc="http://purl.org/dc/elements/1.1/"
   xmlns:cc="http://creativecommons.org/ns#"
   xmlns:rdf="http://www.w3.org/1999/02/22-rdf-syntax-ns#"
   xmlns:svg="http://www.w3.org/2000/svg"
   xmlns="http://www.w3.org/2000/svg"
   xmlns:sodipodi="http://sodipodi.sourceforge.net/DTD/sodipodi-0.dtd"
   xmlns:inkscape="http://www.inkscape.org/namespaces/inkscape"
   width="149.05734mm"
   height="64.050102mm"
   viewBox="0 0 528.15594 226.94918"
   id="svg2"
   version="1.1"
   inkscape:version="0.91 r13725"
   sodipodi:docname="umbralnodes.svg">
  <sodipodi:namedview
     fit-margin-bottom="0"
     fit-margin-right="0"
     fit-margin-left="0"
     fit-margin-top="0"
     id="base"
     pagecolor="#ffffff"
     bordercolor="#666666"
     borderopacity="1.0"
     inkscape:pageopacity="0.0"
     inkscape:pageshadow="2"
     inkscape:zoom="3.959798"
     inkscape:cx="218.43292"
     inkscape:cy="85.318373"
     inkscape:document-units="px"
     inkscape:current-layer="layer1"
     showgrid="true"
     inkscape:window-width="1440"
     inkscape:window-height="855"
     inkscape:window-x="0"
     inkscape:window-y="1"
     inkscape:window-maximized="1">
    <inkscape:grid
       type="xygrid"
       id="grid4136"
       originx="-110.53335"
       originy="-610.92639" />
  </sodipodi:namedview>
  <defs
     id="defs4">
    <marker
       inkscape:isstock="true"
       style="overflow:visible"
       id="marker1516"
       refX="0"
       refY="0"
       orient="auto"
       inkscape:stockid="Arrow2Send">
      <path
         transform="matrix(-0.3,0,0,-0.3,0.69,0)"
         d="M 8.7185878,4.0337352 -2.2072895,0.01601326 8.7185884,-4.0017078 c -1.7454984,2.3720609 -1.7354408,5.6174519 -6e-7,8.035443 z"
         style="fill:#008000;fill-opacity:1;fill-rule:evenodd;stroke:#008000;stroke-width:0.625;stroke-linejoin:round;stroke-opacity:1"
         id="path1514"
         inkscape:connector-curvature="0" />
    </marker>
    <marker
       inkscape:stockid="Arrow2Send"
       orient="auto"
       refY="0"
       refX="0"
       id="Arrow2Send"
       style="overflow:visible"
       inkscape:isstock="true"
       inkscape:collect="always">
      <path
         id="path895"
         style="fill:#000080;fill-opacity:1;fill-rule:evenodd;stroke:#000080;stroke-width:0.625;stroke-linejoin:round;stroke-opacity:1"
         d="M 8.7185878,4.0337352 -2.2072895,0.01601326 8.7185884,-4.0017078 c -1.7454984,2.3720609 -1.7354408,5.6174519 -6e-7,8.035443 z"
         transform="matrix(-0.3,0,0,-0.3,0.69,0)"
         inkscape:connector-curvature="0" />
    </marker>
    <marker
       inkscape:stockid="Arrow2Mend"
       orient="auto"
       refY="0"
       refX="0"
       id="Arrow2Mend"
       style="overflow:visible"
       inkscape:isstock="true">
      <path
         id="path889"
         style="fill:#000000;fill-opacity:1;fill-rule:evenodd;stroke:#000000;stroke-width:0.625;stroke-linejoin:round;stroke-opacity:1"
         d="M 8.7185878,4.0337352 -2.2072895,0.01601326 8.7185884,-4.0017078 c -1.7454984,2.3720609 -1.7354408,5.6174519 -6e-7,8.035443 z"
         transform="scale(-0.6)"
         inkscape:connector-curvature="0" />
    </marker>
    <marker
       inkscape:stockid="Arrow2Mend"
       orient="auto"
       refY="0"
       refX="0"
       id="marker9936"
       style="overflow:visible"
       inkscape:isstock="true">
      <path
         inkscape:connector-curvature="0"
         id="path9938"
         style="fill:#000000;fill-opacity:1;fill-rule:evenodd;stroke:#000000;stroke-width:0.625;stroke-linejoin:round;stroke-opacity:1"
         d="M 8.7185878,4.0337352 -2.2072895,0.01601326 8.7185884,-4.0017078 c -1.7454984,2.3720609 -1.7354408,5.6174519 -6e-7,8.035443 z"
         transform="scale(-0.6)" />
    </marker>
    <marker
       inkscape:stockid="Arrow2Send"
       orient="auto"
       refY="0"
       refX="0"
       id="Arrow2Send-3"
       style="overflow:visible"
       inkscape:isstock="true"
       inkscape:collect="always">
      <path
         id="path895-6"
         style="fill:#000080;fill-opacity:1;fill-rule:evenodd;stroke:#000080;stroke-width:0.625;stroke-linejoin:round;stroke-opacity:1"
         d="M 8.7185878,4.0337352 -2.2072895,0.01601326 8.7185884,-4.0017078 c -1.7454984,2.3720609 -1.7354408,5.6174519 -6e-7,8.035443 z"
         transform="matrix(-0.3,0,0,-0.3,0.69,0)"
         inkscape:connector-curvature="0" />
    </marker>
    <marker
       inkscape:isstock="true"
       style="overflow:visible"
       id="marker1516-6"
       refX="0"
       refY="0"
       orient="auto"
       inkscape:stockid="Arrow2Send">
      <path
         transform="matrix(-0.3,0,0,-0.3,0.69,0)"
         d="M 8.7185878,4.0337352 -2.2072895,0.01601326 8.7185884,-4.0017078 c -1.7454984,2.3720609 -1.7354408,5.6174519 -6e-7,8.035443 z"
         style="fill:#000080;fill-opacity:1;fill-rule:evenodd;stroke:#000080;stroke-width:0.625;stroke-linejoin:round;stroke-opacity:1"
         id="path1514-2"
         inkscape:connector-curvature="0" />
    </marker>
    <marker
       inkscape:isstock="true"
       style="overflow:visible"
       id="marker1516-1"
       refX="0"
       refY="0"
       orient="auto"
       inkscape:stockid="Arrow2Send">
      <path
         transform="matrix(-0.3,0,0,-0.3,0.69,0)"
         d="M 8.7185878,4.0337352 -2.2072895,0.01601326 8.7185884,-4.0017078 c -1.7454984,2.3720609 -1.7354408,5.6174519 -6e-7,8.035443 z"
         style="fill:#008000;fill-opacity:1;fill-rule:evenodd;stroke:#008000;stroke-width:0.625;stroke-linejoin:round;stroke-opacity:1"
         id="path1514-27"
         inkscape:connector-curvature="0" />
    </marker>
    <marker
       inkscape:isstock="true"
       style="overflow:visible"
       id="marker1516-9"
       refX="0"
       refY="0"
       orient="auto"
       inkscape:stockid="Arrow2Send">
      <path
         transform="matrix(-0.3,0,0,-0.3,0.69,0)"
         d="M 8.7185878,4.0337352 -2.2072895,0.01601326 8.7185884,-4.0017078 c -1.7454984,2.3720609 -1.7354408,5.6174519 -6e-7,8.035443 z"
         style="fill:#008000;fill-opacity:1;fill-rule:evenodd;stroke:#008000;stroke-width:0.625;stroke-linejoin:round;stroke-opacity:1"
         id="path1514-3"
         inkscape:connector-curvature="0" />
    </marker>
  </defs>
  <metadata
     id="metadata7">
    <rdf:RDF>
      <cc:Work
         rdf:about="">
        <dc:format>image/svg+xml</dc:format>
        <dc:type
           rdf:resource="http://purl.org/dc/dcmitype/StillImage" />
        <dc:title />
      </cc:Work>
    </rdf:RDF>
  </metadata>
  <g
     inkscape:label="Layer 1"
     inkscape:groupmode="layer"
     id="layer1"
     transform="translate(-110.53335,-214.48663)">
    <g
       id="g4175"
       transform="matrix(0.49301491,0,0,0.49301491,115.23851,302.80251)">
      <g
         transform="translate(-102.37968)"
         id="g28">
        <path
           style="fill:#505967"
           d="m 144.208,15.894 c 8.086,0 14.686,6.599 14.686,14.686 0,8.087 -6.599,14.655 -14.686,14.655 -8.086,0 -14.655,-6.568 -14.655,-14.655 0,-8.087 6.569,-14.686 14.655,-14.686 z"
           id="path30"
           inkscape:connector-curvature="0" />
      </g>
      <g
         transform="translate(-102.37968)"
         id="g32">
        <path
           style="fill:#eaeeef"
           d="m 171.132,118.849 c 0.093,0.713 -0.217,1.239 -0.465,1.549 -0.279,0.279 -0.744,0.651 -1.456,0.651 h -48.983 c -0.713,0 -1.177,-0.372 -1.456,-0.651 -0.248,-0.31 -0.558,-0.837 -0.465,-1.549 l 5.05,-37.179 c 0.124,-0.96 0.929,-1.673 1.89,-1.673 h 38.945 c 0.96,0 1.766,0.713 1.89,1.673 z"
           id="path34"
           inkscape:connector-curvature="0" />
      </g>
      <g
         transform="translate(-102.37968)"
         id="g44">
        <path
           style="fill:#2d213f"
           d="m 186.902,116.742 c 0.682,5.081 -0.868,10.255 -4.276,14.128 -3.377,3.873 -8.272,6.073 -13.415,6.073 h -48.983 c -5.143,0 -10.038,-2.2 -13.415,-6.073 -3.408,-3.873 -4.957,-9.047 -4.276,-14.128 l 5.05,-37.21 c 1.177,-8.83 8.799,-15.46 17.66,-15.46 h 38.945 c 8.861,0 16.483,6.63 17.66,15.46 z m -16.235,3.656 c 0.248,-0.31 0.558,-0.837 0.465,-1.549 l -5.05,-37.179 c -0.124,-0.96 -0.929,-1.673 -1.89,-1.673 h -38.945 c -0.96,0 -1.766,0.713 -1.89,1.673 l -5.05,37.179 c -0.093,0.713 0.217,1.239 0.465,1.549 0.279,0.279 0.744,0.651 1.456,0.651 h 48.983 c 0.713,0 1.178,-0.372 1.456,-0.651 z"
           id="path46"
           inkscape:connector-curvature="0" />
      </g>
      <g
         transform="translate(-102.37968)"
         id="g52">
        <path
           style="fill:#2d213f"
           d="m 144.208,0 c 16.885,0 30.58,13.725 30.58,30.58 0,16.855 -13.694,30.58 -30.58,30.58 -16.855,0 -30.58,-13.725 -30.58,-30.58 0,-16.855 13.726,-30.58 30.58,-30.58 z m 14.686,30.58 c 0,-8.086 -6.599,-14.686 -14.686,-14.686 -8.086,0 -14.655,6.599 -14.655,14.686 0,8.087 6.568,14.655 14.655,14.655 8.087,0 14.686,-6.569 14.686,-14.655 z"
           id="path54"
           inkscape:connector-curvature="0" />
      </g>
      <g
         transform="translate(-102.37968)"
         id="g64">
        <path
           inkscape:connector-curvature="0"
           id="path66"
           d="m 120.689,121.049 h 48.522 c 0.713,0 1.177,-0.372 1.456,-0.651 0.248,-0.31 0.558,-0.837 0.465,-1.549 l -5.05,-37.179 c -0.04,-0.316 -0.173,-0.589 -0.344,-0.833 -5.58,11.9 -18.032,26.707 -45.049,40.212 z"
           style="fill:#c5cbcf" />
      </g>
    </g>
    <text
       xml:space="preserve"
       style="font-style:normal;font-weight:normal;line-height:0%;font-family:sans-serif;letter-spacing:0px;word-spacing:0px;fill:#000000;fill-opacity:1;stroke:none;stroke-width:1px;stroke-linecap:butt;stroke-linejoin:miter;stroke-opacity:1"
       x="109.19546"
       y="400.75565"
       id="text4338"><tspan
         sodipodi:role="line"
         id="tspan4340"
         x="109.19546"
         y="400.75565"
         style="font-style:normal;font-variant:normal;font-weight:normal;font-stretch:normal;font-size:20px;line-height:1.25;font-family:'Liberation Serif';-inkscape-font-specification:'Liberation Serif'">Sender</tspan></text>
    <text
       xml:space="preserve"
       style="font-style:normal;font-weight:normal;line-height:0%;font-family:sans-serif;letter-spacing:0px;word-spacing:0px;fill:#000000;fill-opacity:1;stroke:none;stroke-width:1px;stroke-linecap:butt;stroke-linejoin:miter;stroke-opacity:1"
       x="567.8299"
       y="386.80893"
       id="text4352"><tspan
         sodipodi:role="line"
         id="tspan4354"
         x="567.8299"
         y="386.80893"
         style="font-style:normal;font-variant:normal;font-weight:normal;font-stretch:normal;font-size:20px;line-height:1.25;font-family:'Liberation Serif';-inkscape-font-specification:'Liberation Serif'">Receiver</tspan></text>
    <text
       xml:space="preserve"
       style="font-style:normal;font-weight:normal;line-height:0%;font-family:sans-serif;letter-spacing:0px;word-spacing:0px;fill:#000000;fill-opacity:1;stroke:none;stroke-width:1px;stroke-linecap:butt;stroke-linejoin:miter;stroke-opacity:1"
       x="295"
       y="332.36218"
       id="text6307"><tspan
         sodipodi:role="line"
         x="295"
         y="332.36218"
         id="tspan6313"
         style="font-size:20px;line-height:1.25"> </tspan></text>
    <g
       id="g9621"
       transform="translate(128.72927,143.21739)">
      <g
         style="fill:#9ce19d;fill-opacity:1;stroke-width:2.07547069"
         transform="matrix(0.4708758,0,0,0.49301533,403.81381,147.42545)"
         id="g28-8-6">
        <path
           style="fill:#9ce19d;fill-opacity:1;stroke-width:2.07547069"
           d="m 144.208,15.894 c 8.086,0 14.686,6.599 14.686,14.686 0,8.087 -6.599,14.655 -14.686,14.655 -8.086,0 -14.655,-6.568 -14.655,-14.655 0,-8.087 6.569,-14.686 14.655,-14.686 z"
           id="path30-5-3"
           inkscape:connector-curvature="0" />
      </g>
      <g
         style="stroke-width:2.07547069"
         transform="matrix(0.4708758,0,0,0.49301533,403.81381,147.42545)"
         id="g32-0-1">
        <path
           style="fill:#eaeeef;stroke-width:2.07547069"
           d="m 171.132,118.849 c 0.093,0.713 -0.217,1.239 -0.465,1.549 -0.279,0.279 -0.744,0.651 -1.456,0.651 h -48.983 c -0.713,0 -1.177,-0.372 -1.456,-0.651 -0.248,-0.31 -0.558,-0.837 -0.465,-1.549 l 5.05,-37.179 c 0.124,-0.96 0.929,-1.673 1.89,-1.673 h 38.945 c 0.96,0 1.766,0.713 1.89,1.673 z"
           id="path34-9-7"
           inkscape:connector-curvature="0" />
      </g>
      <g
         style="fill:#436d3a;fill-opacity:1;stroke-width:2.07547069"
         transform="matrix(0.4708758,0,0,0.49301533,403.81381,147.42545)"
         id="g44-6-5">
        <path
           style="fill:#436d3a;fill-opacity:1;stroke-width:2.07547069"
           d="m 186.902,116.742 c 0.682,5.081 -0.868,10.255 -4.276,14.128 -3.377,3.873 -8.272,6.073 -13.415,6.073 h -48.983 c -5.143,0 -10.038,-2.2 -13.415,-6.073 -3.408,-3.873 -4.957,-9.047 -4.276,-14.128 l 5.05,-37.21 c 1.177,-8.83 8.799,-15.46 17.66,-15.46 h 38.945 c 8.861,0 16.483,6.63 17.66,15.46 z m -16.235,3.656 c 0.248,-0.31 0.558,-0.837 0.465,-1.549 l -5.05,-37.179 c -0.124,-0.96 -0.929,-1.673 -1.89,-1.673 h -38.945 c -0.96,0 -1.766,0.713 -1.89,1.673 l -5.05,37.179 c -0.093,0.713 0.217,1.239 0.465,1.549 0.279,0.279 0.744,0.651 1.456,0.651 h 48.983 c 0.713,0 1.178,-0.372 1.456,-0.651 z"
           id="path46-3-9"
           inkscape:connector-curvature="0" />
      </g>
      <g
         style="fill:#436d3a;fill-opacity:1;stroke-width:2.07547069"
         transform="matrix(0.4708758,0,0,0.49301533,403.81381,147.42545)"
         id="g52-8-6">
        <path
           style="fill:#436d3a;fill-opacity:1;stroke-width:2.07547069"
           d="m 144.208,0 c 16.885,0 30.58,13.725 30.58,30.58 0,16.855 -13.694,30.58 -30.58,30.58 -16.855,0 -30.58,-13.725 -30.58,-30.58 0,-16.855 13.726,-30.58 30.58,-30.58 z m 14.686,30.58 c 0,-8.086 -6.599,-14.686 -14.686,-14.686 -8.086,0 -14.655,6.599 -14.655,14.686 0,8.087 6.568,14.655 14.655,14.655 8.087,0 14.686,-6.569 14.686,-14.655 z"
           id="path54-5-2"
           inkscape:connector-curvature="0" />
      </g>
      <g
         style="fill:#d1e0d3;fill-opacity:1;stroke-width:2.07547069"
         transform="matrix(0.4708758,0,0,0.49301533,403.81381,147.42545)"
         id="g64-6-1">
        <path
           inkscape:connector-curvature="0"
           id="path66-1-7"
           d="m 120.689,121.049 h 48.522 c 0.713,0 1.177,-0.372 1.456,-0.651 0.248,-0.31 0.558,-0.837 0.465,-1.549 l -5.05,-37.179 c -0.04,-0.316 -0.173,-0.589 -0.344,-0.833 -5.58,11.9 -18.032,26.707 -45.049,40.212 z"
           style="fill:#d1e0d3;fill-opacity:1;stroke-width:2.07547069" />
      </g>
    </g>
    <path
       style="fill:none;fill-rule:evenodd;stroke:#000000;stroke-width:2.0775001;stroke-linecap:butt;stroke-linejoin:miter;stroke-miterlimit:4;stroke-dasharray:none;stroke-opacity:1"
       d="M 321.14065,299.3041 459.84833,271.08426"
       id="path4149"
       inkscape:connector-curvature="0" />
    <path
       style="fill:none;fill-rule:evenodd;stroke:#000000;stroke-width:2.0775001;stroke-linecap:butt;stroke-linejoin:miter;stroke-miterlimit:4;stroke-dasharray:none;stroke-opacity:1"
       d="m 318.74914,319.39279 60.26609,33.00286"
       id="path4147"
       inkscape:connector-curvature="0" />
    <path
       style="fill:none;fill-rule:evenodd;stroke:#000000;stroke-width:2.0775001;stroke-linecap:butt;stroke-linejoin:miter;stroke-miterlimit:4;stroke-dasharray:none;stroke-opacity:1"
       d="m 263.74438,399.74759 24.39341,-69.35384"
       id="path4157"
       inkscape:connector-curvature="0" />
    <circle
       style="opacity:1;fill:none;fill-opacity:1;stroke:#000000;stroke-width:2.0775001;stroke-linecap:round;stroke-linejoin:round;stroke-miterlimit:4;stroke-dasharray:none;stroke-dashoffset:0;stroke-opacity:1"
       id="path4137-1"
       cx="257.37741"
       cy="412.31604"
       r="14.204854" />
    <circle
       style="opacity:1;fill:none;fill-opacity:1;stroke:#000000;stroke-width:2.0775001;stroke-linecap:round;stroke-linejoin:round;stroke-miterlimit:4;stroke-dasharray:none;stroke-dashoffset:0;stroke-opacity:1"
       id="path4139"
       cx="399.42593"
       cy="364.96655"
       r="23.674757" />
    <path
       style="fill:none;fill-rule:evenodd;stroke:#000000;stroke-width:2.0775001;stroke-linecap:butt;stroke-linejoin:miter;stroke-miterlimit:4;stroke-dasharray:none;stroke-opacity:1"
       d="m 480.89361,284.47673 11.95757,121.01049"
       id="path4151"
       inkscape:connector-curvature="0" />
    <circle
       style="opacity:1;fill:none;fill-opacity:1;stroke:#808080;stroke-width:10.89000034;stroke-linecap:round;stroke-linejoin:round;stroke-miterlimit:4;stroke-dasharray:none;stroke-dashoffset:0;stroke-opacity:1"
       id="path4135"
       cx="295.48752"
       cy="306.6185"
       r="23.674757" />
    <path
       style="fill:none;fill-rule:evenodd;stroke:#000000;stroke-width:2.21991467;stroke-linecap:butt;stroke-linejoin:miter;stroke-miterlimit:4;stroke-dasharray:none;stroke-opacity:1"
       d="m 470.64104,279.85563 -53.15339,69.50828"
       id="path4153"
       inkscape:connector-curvature="0" />
    <circle
       style="opacity:1;fill:none;fill-opacity:1;stroke:#808080;stroke-width:10.89000034;stroke-linecap:round;stroke-linejoin:round;stroke-miterlimit:4;stroke-dasharray:none;stroke-dashoffset:0;stroke-opacity:1"
       id="path4143"
       cx="478.0451"
       cy="265.53259"
       r="18.939804" />
    <path
       style="fill:none;fill-rule:evenodd;stroke:#000000;stroke-width:2.0775001;stroke-linecap:butt;stroke-linejoin:miter;stroke-miterlimit:4;stroke-dasharray:none;stroke-opacity:1"
       d="m 271.39721,412.66175 206.1483,8.60943"
       id="path4155"
       inkscape:connector-curvature="0" />
    <circle
       style="opacity:1;fill:none;fill-opacity:1;stroke:#808080;stroke-width:10.89000034;stroke-linecap:round;stroke-linejoin:round;stroke-miterlimit:4;stroke-dasharray:none;stroke-dashoffset:0;stroke-opacity:1"
       id="path4145"
       cx="492.24997"
       cy="421.78595"
       r="14.204854" />
    <path
       style="fill:none;fill-rule:evenodd;stroke:#000080;stroke-width:2.71875;stroke-linecap:butt;stroke-linejoin:miter;stroke-miterlimit:4;stroke-dasharray:none;stroke-opacity:1;marker-end:url(#Arrow2Send)"
       d="m 164.0625,353.92472 129.375,-47.81251"
       id="path860"
       inkscape:connector-curvature="0"
       sodipodi:nodetypes="cc" />
    <path
       style="fill:none;fill-rule:evenodd;stroke:#008000;stroke-width:2.71875;stroke-linecap:butt;stroke-linejoin:miter;stroke-miterlimit:4;stroke-dasharray:none;stroke-opacity:1;marker-end:url(#marker1516)"
       d="M 297.1875,303.29971 C 330,204.86221 515.625,175.79972 590.625,288.29972"
       id="path1506"
       inkscape:connector-curvature="0"
       sodipodi:nodetypes="cc" />
    <path
       style="fill:none;fill-rule:evenodd;stroke:#000080;stroke-width:2.71875;stroke-linecap:butt;stroke-linejoin:miter;stroke-miterlimit:4;stroke-dasharray:none;stroke-opacity:1;marker-end:url(#Arrow2Send-3)"
       d="m 164.0625,353.92471 323.43751,67.50001"
       id="path860-7"
       inkscape:connector-curvature="0"
       sodipodi:nodetypes="cc" />
    <path
       style="fill:none;fill-rule:evenodd;stroke:#000080;stroke-width:2.71875;stroke-linecap:butt;stroke-linejoin:miter;stroke-miterlimit:4;stroke-dasharray:none;stroke-opacity:1;marker-end:url(#marker1516-6)"
       d="m 164.0625,353.92471 c 145.3125,14.0625 236.25,-34.6875 311.25,-86.25"
       id="path1506-9"
       inkscape:connector-curvature="0"
       sodipodi:nodetypes="cc" />
    <path
       style="fill:none;fill-rule:evenodd;stroke:#008000;stroke-width:2.71875;stroke-linecap:butt;stroke-linejoin:miter;stroke-miterlimit:4;stroke-dasharray:none;stroke-opacity:1;marker-end:url(#marker1516-1)"
       d="m 480.00001,264.86221 c 51.5625,9.375 77.8125,18.75 101.25,42.1875"
       id="path1506-0"
       inkscape:connector-curvature="0"
       sodipodi:nodetypes="cc" />
    <path
       style="fill:none;fill-rule:evenodd;stroke:#008000;stroke-width:2.71875;stroke-linecap:butt;stroke-linejoin:miter;stroke-miterlimit:4;stroke-dasharray:none;stroke-opacity:1;marker-end:url(#marker1516-9)"
       d="m 495.00001,421.42472 c 4.6875,-4.6875 39.375,-48.75001 76.875,-76.87501"
       id="path1506-6"
       inkscape:connector-curvature="0"
       sodipodi:nodetypes="cc" />
  </g>
</svg>
